<svg id="icons" xmlns="http://www.w3.org/2000/svg" width="468" height="227.9" viewBox="0 0 468 227.9">
  <defs>
    <style>
      .cls-1 {
        fill: rgb(255,0,0);
        opacity: 1;
      }
    </style>
  </defs>
  <title>S_DragAndDropFiles_234x128@2x</title>
  <g>
    <path class="cls-1" d="M113.9,120.2L113.9,120.2c-3.7,0-7.2-1.5-9.7-4.1c-5.6-5.7-5.6-14.8,0-20.5c2.5-2.6,6-4,9.6-4h0.1
      c3.6,0,7.1,1.5,9.7,4c5.6,5.7,5.6,14.8,0,20.5C121,118.7,117.5,120.2,113.9,120.2L113.9,120.2z M113.9,96.3c-2.4,0-4.6,0.9-6.3,2.6
      c-3.7,3.8-3.8,9.9,0,13.8c1.7,1.7,3.9,2.7,6.3,2.7h0c2.4,0,4.6-1,6.3-2.6c3.7-3.8,3.8-9.9,0-13.8C118.6,97.3,116.3,96.3,113.9,96.3
      L113.9,96.3z"/>
    <path class="cls-1" d="M136.6,176.2c4.6,0,8.3-3.7,8.3-8.3V84.5c0-4.6-3.7-8.3-8.3-8.3l0,0H8.3c-4.6,0-8.3,3.7-8.3,8.3l0,0v83.4
      c0,4.6,3.7,8.3,8.3,8.3H136.6z M13.7,169L55,127.2c0.3-0.3,0.7-0.5,1.1-0.5c0.4,0,0.8,0.2,1.1,0.5L97.5,169H13.7z M90.2,154.6
      l11.4-12.4c1-0.9,2.5-0.9,3.5,0l25.7,26.9h-26.7L90.2,154.6z M137.3,168.8l-28.7-30c-2.9-2.8-7.5-2.8-10.4,0l-11.3,12.3l-26.3-27.2
      c-2.4-2.5-6.4-2.6-8.9-0.2c-0.1,0.1-0.1,0.1-0.2,0.2L7.4,168.6c-0.2-0.2-0.3-0.5-0.3-0.8V84.5c0-0.7,0.5-1.2,1.2-1.2h128.3
      c0.7,0,1.2,0.5,1.2,1.2v83.4C137.8,168.2,137.6,168.6,137.3,168.8L137.3,168.8z M452.5,178.6H348.1c-8.6,0-15.5-7-15.5-15.6V75
      c0-8.6,6.9-15.5,15.5-15.6h34.3c3.6,0,7,1.4,9.5,3.9c0.1,0.1,0.2,0.2,0.2,0.3l10.2,12.5h50.2c8.6,0,15.5,7,15.5,15.6V163
      C468,171.6,461.1,178.6,452.5,178.6z M339.7,83.3V163c0,4.6,3.8,8.4,8.4,8.4h104.4c4.6,0,8.4-3.8,8.4-8.4V91.7
      c0-4.6-3.8-8.4-8.4-8.4H339.7z M339.7,76.2h53.4l-6.4-7.8c-1.2-1.1-2.8-1.8-4.4-1.8h-34.3c-4.6,0-8.4,3.8-8.4,8.4V76.2z
       M265.1,196.7c-1.4-1.4-3.6-1.4-5,0l-20.1,20.1v-56c0-2-1.6-3.6-3.6-3.6s-3.6,1.6-3.6,3.6v56l-20.1-20.1c-1.4-1.4-3.7-1.4-5,0
      c-1.4,1.4-1.4,3.7,0,5.1l0,0l24.4,24.4c1.2,1.1,2.7,1.8,4.3,1.7c1.6,0,3.2-0.6,4.3-1.8l24.4-24.4
      C266.5,200.3,266.5,198.1,265.1,196.7L265.1,196.7z"/>
    <path class="cls-1" d="M288.6,178.6h-38c-2,0-3.6-1.6-3.6-3.6s1.6-3.6,3.6-3.6h38c7.2,0,13.1-5.9,13.1-13.1v-110
      c0-4.9-1.9-9.6-5.4-13l-22.8-22.8c-3.4-3.5-8.1-5.4-13-5.4h-76.4c-7.2,0-13.1,5.9-13.1,13.1v138.1c0,7.2,5.9,13.1,13.1,13.1h38
      c2,0,3.6,1.6,3.6,3.6s-1.6,3.6-3.6,3.6h-38c-11.1,0-20.2-9.1-20.2-20.2V20.2C163.9,9,173,0,184.1,0h76.4c6.8,0,13.3,2.7,18.1,7.5
      l22.8,22.8c4.8,4.8,7.5,11.3,7.5,18.1v110C308.8,169.5,299.8,178.6,288.6,178.6z"/>
    <path class="cls-1" d="M279.1,147.6h-85.5c-2,0-3.6-1.6-3.6-3.6c0-2,1.6-3.6,3.6-3.6h85.5c2,0,3.6,1.6,3.6,3.6
      C282.7,146,281.1,147.6,279.1,147.6z M279.1,123.8h-85.5c-2,0-3.6-1.6-3.6-3.6c0-2,1.6-3.6,3.6-3.6h85.5c2,0,3.6,1.6,3.6,3.6
      C282.7,122.2,281.1,123.8,279.1,123.8z"/>
  </g>
</svg>
